<svg xmlns="http://www.w3.org/2000/svg" xmlns:xlink="http://www.w3.org/1999/xlink" viewBox="0 0 399.87 480.6"><defs><style>.cls-1{isolation:isolate;}.cls-2{fill:#376bb3;}.cls-3{fill:url(#linear-gradient);}.cls-4{fill:url(#linear-gradient-2);}.cls-12,.cls-13,.cls-14,.cls-16,.cls-5,.cls-6,.cls-7,.cls-9{opacity:0.7;mix-blend-mode:multiply;}.cls-5{fill:url(#linear-gradient-3);}.cls-6{fill:url(#linear-gradient-4);}.cls-7{fill:url(#linear-gradient-5);}.cls-8{fill:url(#linear-gradient-6);}.cls-9{fill:url(#linear-gradient-7);}.cls-10{fill:url(#linear-gradient-8);}.cls-11{fill:url(#linear-gradient-9);}.cls-12{fill:url(#linear-gradient-10);}.cls-13{fill:url(#linear-gradient-11);}.cls-14{fill:url(#linear-gradient-12);}.cls-15{fill:url(#linear-gradient-13);}.cls-16{fill:url(#linear-gradient-14);}</style><linearGradient id="linear-gradient" x1="143.45" y1="480.6" x2="143.45" y2="293.91" gradientUnits="userSpaceOnUse"><stop offset="0" stop-color="#154294"/><stop offset="0.09" stop-color="#1b4a9a"/><stop offset="0.38" stop-color="#2b5ca8"/><stop offset="0.68" stop-color="#3467b0"/><stop offset="1" stop-color="#376bb3"/></linearGradient><linearGradient id="linear-gradient-2" x1="286.57" y1="93.35" x2="0" y2="93.35" xlink:href="#linear-gradient"/><linearGradient id="linear-gradient-3" x1="357.91" y1="320.08" x2="256.44" y2="421.55" gradientUnits="userSpaceOnUse"><stop offset="0.46" stop-color="#fff"/><stop offset="0.54" stop-color="#fcfcfc"/><stop offset="0.61" stop-color="#f1f1f1"/><stop offset="0.68" stop-color="#dfdfdf"/><stop offset="0.74" stop-color="#c6c6c6"/><stop offset="0.8" stop-color="#a5a5a5"/><stop offset="0.86" stop-color="#7d7d7d"/><stop offset="0.92" stop-color="#4e4e4e"/><stop offset="0.98" stop-color="#181818"/><stop offset="1"/></linearGradient><linearGradient id="linear-gradient-4" x1="334.15" y1="156.51" x2="276.82" y2="57.22" xlink:href="#linear-gradient-3"/><linearGradient id="linear-gradient-5" x1="198.02" y1="483.66" x2="88.97" y2="294.77" xlink:href="#linear-gradient-3"/><linearGradient id="linear-gradient-6" x1="0.75" y1="240.3" x2="91.29" y2="240.3" xlink:href="#linear-gradient"/><linearGradient id="linear-gradient-7" x1="234.8" y1="-0.06" x2="51.78" y2="182.96" xlink:href="#linear-gradient-3"/><linearGradient id="linear-gradient-8" x1="179.94" y1="325.37" x2="179.94" y2="259.28" xlink:href="#linear-gradient"/><linearGradient id="linear-gradient-9" x1="230.6" y1="188.28" x2="129.16" y2="188.28" xlink:href="#linear-gradient"/><linearGradient id="linear-gradient-10" x1="255.86" y1="268.54" x2="219.94" y2="304.46" xlink:href="#linear-gradient-3"/><linearGradient id="linear-gradient-11" x1="247.45" y1="210.64" x2="227.15" y2="175.49" xlink:href="#linear-gradient-3"/><linearGradient id="linear-gradient-12" x1="199.26" y1="326.45" x2="160.65" y2="259.58" xlink:href="#linear-gradient-3"/><linearGradient id="linear-gradient-13" x1="129.43" y1="240.3" x2="161.48" y2="240.3" xlink:href="#linear-gradient"/><linearGradient id="linear-gradient-14" x1="212.28" y1="155.22" x2="147.49" y2="220" xlink:href="#linear-gradient-3"/></defs><title>Untitled-1</title><g class="cls-1"><g id="Layer_1" data-name="Layer 1"><polygon class="cls-2" points="214.48 379.59 286.35 428.89 399.87 362.04 312.84 317.89 214.48 379.59"/><polygon class="cls-3" points="214.48 379.59 90.46 293.91 91.29 293.95 91.29 295.18 49.56 319.25 0.45 349.42 203.32 480.6 286.46 428.89 214.48 379.59"/><polygon class="cls-2" points="91.29 288.87 91.29 191.74 91.29 186.66 50.11 161.35 0.75 132.44 0.75 147.59 0.75 333.02 0.75 348.16 50.11 319.25 91.29 293.95 91.29 288.87"/><polygon class="cls-2" points="91.29 293.95 50.46 319.25 91.29 295.18 91.29 293.95"/><polygon class="cls-2" points="91.29 185.43 50.46 161.35 91.29 186.66 91.29 185.43"/><polygon class="cls-2" points="214.48 101.02 312.84 162.71 399.87 118.56 286.35 51.72 214.48 101.02"/><polygon class="cls-4" points="203.09 0 0 131.19 49.56 161.35 91.29 185.43 91.29 186.66 90.46 186.69 214.93 101.02 286.57 51.72 203.09 0"/><polygon class="cls-5" points="214.48 379.59 286.35 428.89 399.87 362.04 312.84 317.89 214.48 379.59"/><polygon class="cls-2" points="91.29 293.95 50.46 319.25 91.29 295.18 91.29 293.95"/><polygon class="cls-2" points="91.29 185.43 50.46 161.35 91.29 186.66 91.29 185.43"/><polygon class="cls-6" points="214.48 101.02 312.84 162.71 399.87 118.56 286.35 51.72 214.48 101.02"/><polygon class="cls-7" points="214.48 379.59 90.46 293.91 91.29 293.95 91.29 295.18 49.56 319.25 0.45 349.42 203.32 480.6 286.46 428.89 214.48 379.59"/><polygon class="cls-8" points="91.29 288.87 91.29 191.74 91.29 186.66 50.11 161.35 0.75 132.44 0.75 147.59 0.75 333.02 0.75 348.16 50.11 319.25 91.29 293.95 91.29 288.87"/><polygon class="cls-9" points="203.09 0 0 131.19 49.56 161.35 91.29 185.43 91.29 186.66 90.46 186.69 214.93 101.02 286.57 51.72 203.09 0"/><polygon class="cls-2" points="205.08 289.61 230.52 307.06 270.71 283.4 239.9 267.77 205.08 289.61"/><polygon class="cls-10" points="205.08 289.61 161.18 259.28 161.48 259.29 161.48 259.73 146.7 268.25 129.32 278.93 201.13 325.37 230.56 307.06 205.08 289.61"/><polygon class="cls-2" points="161.48 257.49 161.48 223.11 161.48 221.31 146.9 212.35 129.43 202.12 129.43 207.48 129.43 273.12 129.43 278.48 146.9 268.25 161.48 259.29 161.48 257.49"/><polygon class="cls-2" points="161.48 259.29 147.02 268.25 161.48 259.73 161.48 259.29"/><polygon class="cls-2" points="161.48 220.88 147.02 212.35 161.48 221.31 161.48 220.88"/><polygon class="cls-2" points="205.08 191 239.9 212.84 270.71 197.21 230.52 173.54 205.08 191"/><polygon class="cls-11" points="201.05 155.24 129.16 201.68 146.7 212.35 161.48 220.88 161.48 221.31 161.18 221.32 205.24 191 230.6 173.54 201.05 155.24"/><polygon class="cls-12" points="205.08 289.61 230.52 307.06 270.71 283.4 239.9 267.77 205.08 289.61"/><polygon class="cls-2" points="161.48 259.29 147.02 268.25 161.48 259.73 161.48 259.29"/><polygon class="cls-2" points="161.48 220.88 147.02 212.35 161.48 221.31 161.48 220.88"/><polygon class="cls-13" points="205.08 191 239.9 212.84 270.71 197.21 230.52 173.54 205.08 191"/><polygon class="cls-14" points="205.08 289.61 161.18 259.28 161.48 259.29 161.48 259.73 146.7 268.25 129.32 278.93 201.13 325.37 230.56 307.06 205.08 289.61"/><polygon class="cls-15" points="161.48 257.49 161.48 223.11 161.48 221.31 146.9 212.35 129.43 202.12 129.43 207.48 129.43 273.12 129.43 278.48 146.9 268.25 161.48 259.29 161.48 257.49"/><polygon class="cls-16" points="201.05 155.24 129.16 201.68 146.7 212.35 161.48 220.88 161.48 221.31 161.18 221.32 205.24 191 230.6 173.54 201.05 155.24"/></g></g></svg>