<svg xmlns="http://www.w3.org/2000/svg" xmlns:xlink="http://www.w3.org/1999/xlink" viewBox="0 0 933.52 936.68"><defs><style>.cls-1{fill:url(#linear-gradient);}.cls-2,.cls-3{fill:none;stroke-linecap:round;stroke-linejoin:round;}.cls-2{stroke-width:6px;stroke:url(#linear-gradient-2);}.cls-3{stroke-width:95px;stroke:url(#linear-gradient-3);}.cls-4{fill:url(#linear-gradient-4);}.cls-5{opacity:0.76;fill:url(#linear-gradient-5);}</style><linearGradient id="linear-gradient" x1="45.29" y1="470.53" x2="886.02" y2="470.53" gradientUnits="userSpaceOnUse"><stop offset="0.03" stop-color="#ddefea"/><stop offset="1" stop-color="#fae2ef"/></linearGradient><linearGradient id="linear-gradient-2" x1="825.8" y1="-95.66" x2="825.8" y2="528.34" gradientTransform="translate(695.75 1011.11) rotate(-135.58)" gradientUnits="userSpaceOnUse"><stop offset="0.03" stop-color="#4496d2"/><stop offset="0.63" stop-color="#355696"/><stop offset="1" stop-color="#2b2e6f"/></linearGradient><linearGradient id="linear-gradient-3" x1="412.68" y1="897.79" x2="412.68" y2="-38.89" gradientTransform="matrix(-0.74, -0.68, 0.68, -0.74, 569.84, 1149.12)" xlink:href="#linear-gradient-2"/><linearGradient id="linear-gradient-4" x1="208.91" y1="512" x2="815.09" y2="512" gradientTransform="matrix(1, 0, 0, 1, 0, 0)" xlink:href="#linear-gradient-2"/><linearGradient id="linear-gradient-5" x1="400.18" y1="450.12" x2="536.73" y2="450.12" gradientUnits="userSpaceOnUse"><stop offset="0.03" stop-color="#414141"/><stop offset="0.34" stop-color="#2b2c2f"/><stop offset="1"/></linearGradient></defs><title>TimerApp</title><g id="Layer_1" data-name="Layer 1"><circle class="cls-1" cx="465.66" cy="470.53" r="420.36"/><path class="cls-2" d="M94,551.06C83.33,432.55,122.73,310.27,212.56,218.62A419.54,419.54,0,0,1,508.88,92.37" transform="translate(-45.71 -43.66)"/><path class="cls-3" d="M492.94,91.55A419.51,419.51,0,0,1,795.5,202c171.21,157.19,182.57,423.4,25.39,594.61S397.49,979.19,226.28,822A419.17,419.17,0,0,1,93.21,563.51" transform="translate(-45.71 -43.66)"/><path class="cls-4" d="M512,204.77C344.88,204.77,208.91,342.6,208.91,512S344.88,819.23,512,819.23,815.09,681.4,815.09,512,679.12,204.77,512,204.77ZM710.38,612.91A12.45,12.45,0,0,0,693,616.16a12.85,12.85,0,0,0,3.21,17.66l27.18,19A256.88,256.88,0,0,1,649.68,727l-16.93-27.69a12.46,12.46,0,0,0-17.24-4.1,12.83,12.83,0,0,0-4,17.48L628,739.83a248.44,248.44,0,0,1-93.5,27.58V738.83a22.54,22.54,0,1,0-45.08,0v28.58a248.64,248.64,0,0,1-101-31.68l21.75-30A12.85,12.85,0,0,0,407.56,688h0a12.45,12.45,0,0,0-17.51,2.7l-22.83,31.46a257.22,257.22,0,0,1-73.09-80l35.84-21a12.84,12.84,0,0,0,4.58-17.35h0a12.47,12.47,0,0,0-17.11-4.64l-35,20.48A257.43,257.43,0,0,1,260,534.85h36.77a22.85,22.85,0,0,0,0-45.7H260a257.23,257.23,0,0,1,32.55-104.69l34.44,24a12.46,12.46,0,0,0,17.42-3.26,12.85,12.85,0,0,0-3.22-17.66L306.14,363.1a256,256,0,0,1,80.25-73.64l21.45,35.07a12.47,12.47,0,0,0,17.25,4.11h0a12.84,12.84,0,0,0,4-17.48l-20.34-33.27a248.11,248.11,0,0,1,80.67-21.3v28.16a22.54,22.54,0,1,0,45.08,0V256.59A249.14,249.14,0,0,1,645.3,294.13l-21.51,29.64a12.84,12.84,0,0,0,2.67,17.74h0a12.44,12.44,0,0,0,17.51-2.7l21.92-30.21A257.42,257.42,0,0,1,734,389.09l-27.39,16A12.81,12.81,0,0,0,702,422.46a12.46,12.46,0,0,0,17.1,4.65L745,412a257.53,257.53,0,0,1,19,77.15H729.72a22.85,22.85,0,0,0,0,45.7H764a257.24,257.24,0,0,1-27.86,96Z" transform="translate(-45.71 -43.66)"/><path class="cls-5" d="M519,364.64l4.06,127.28a20.25,20.25,0,0,1,10.54,8.44A20.93,20.93,0,0,1,526.94,529a20.55,20.55,0,0,1-26.7-3.93L412.83,542a10.63,10.63,0,0,1-12.48-8.53h0A10.94,10.94,0,0,1,409,520.88l87.89-17A21,21,0,0,1,505.1,494a20.72,20.72,0,0,1,4.16-2l-4.05-126.73a7,7,0,0,1,6.68-7.21A6.83,6.83,0,0,1,519,364.64Z" transform="translate(-45.71 -43.66)"/></g></svg>